# xmcd
#
# Track frame offsets:
#	150
#	18942
#	32318
#	52271
#	67610
#	84031
#	105975
#	128204
#	146071
#	161471
#	173414
#	188064
#	200185
#	212611
#	228679
#	233662
#	240791
#
# Disc length: 3433 seconds
#
# Revision: 1
# Processed by: cddbd v1.4PL0 Copyright (c) Steve Scherf et al.
# Submitted via: audiograbber 1.82.00
#
DISCID=cc0d6711
DTITLE=PJ Wallace - PJ Wallace and Friends
DYEAR=1998
DGENRE=
TTITLE0=Black is the Colour
TTITLE1=Father Kelly's, St. Ann's, Speed the Plough
TTITLE2=Ordinary Man
TTITLE3=Hiroshima, Nagasaki, Russian Roulette
TTITLE4=Delerium Tremens
TTITLE5=Hot House
TTITLE6=Banna Strand
TTITLE7=Don't Think Twice
TTITLE8=Confusion in the Night
TTITLE9=Sick Note
TTITLE10=Step it out Mary
TTITLE11=Tamlinn
TTITLE12=Night Visit
TTITLE13=Past the Point of Rescue
TTITLE14=Gaida
TTITLE15=Copanitza
TTITLE16=Only Our Rivers Run Free
EXTD=
EXTT0=
EXTT1=
EXTT2=
EXTT3=
EXTT4=
EXTT5=
EXTT6=
EXTT7=
EXTT8=
EXTT9=
EXTT10=
EXTT11=
EXTT12=
EXTT13=
EXTT14=
EXTT15=
EXTT16=
PLAYORDER=
